# xmcd
#
# Track frame offsets:
#	150
#	16533
#	31811
#	49607
#	66739
#	83837
#	99705
#	116381
#	135442
#	150223
#	165253
#	181130
#
# Disc length: 2812 seconds
# Revision: 1
# Processed by: cddbd v1.5.2PL0 Copyright (c) Steve Scherf et al.
# Submitted via: dBpowerAMP V12.0
#
DISCID=800afa0c
DTITLE=Kyle Park - Anywhere In Texas
DYEAR=2008
DGENRE=Country
TTITLE0=Don't Look
TTITLE1=Cold In Colorado
TTITLE2=Tossin' And Turnin'
TTITLE3=Baby I'm Gone
TTITLE4=Day By Day
TTITLE5=A Woman Like You
TTITLE6=Living Room Loving
TTITLE7=Anywhere In Texas
TTITLE8=First Day Of Summer
TTITLE9=Nightmare And A Dream
TTITLE10=The Other Man
TTITLE11=These Days
EXTD=
EXTT0=
EXTT1=
EXTT2=
EXTT3=
EXTT4=
EXTT5=
EXTT6=
EXTT7=
EXTT8=
EXTT9=
EXTT10=
EXTT11=
PLAYORDER=
